<mxfile host="app.diagrams.net" modified="2023-03-23T10:16:05.781Z" agent="5.0 (Windows NT 10.0; Win64; x64) AppleWebKit/537.36 (KHTML, like Gecko) Chrome/111.0.0.0 Safari/537.36" etag="hdaKz7eQ6iKKmJTr-AZU" version="21.0.10" type="github" pages="2">
  <diagram name="Page-1" id="2YBvvXClWsGukQMizWep">
    <mxGraphModel dx="954" dy="626" grid="1" gridSize="10" guides="1" tooltips="1" connect="1" arrows="1" fold="1" page="1" pageScale="1" pageWidth="850" pageHeight="1100" math="0" shadow="0">
      <root>
        <mxCell id="0" />
        <mxCell id="1" parent="0" />
        <mxCell id="aM9ryv3xv72pqoxQDRHE-1" value="Consumer" style="shape=umlLifeline;perimeter=lifelinePerimeter;whiteSpace=wrap;html=1;container=0;dropTarget=0;collapsible=0;recursiveResize=0;outlineConnect=0;portConstraint=eastwest;newEdgeStyle={&quot;edgeStyle&quot;:&quot;elbowEdgeStyle&quot;,&quot;elbow&quot;:&quot;vertical&quot;,&quot;curved&quot;:0,&quot;rounded&quot;:0};" parent="1" vertex="1">
          <mxGeometry x="40" y="40" width="100" height="300" as="geometry" />
        </mxCell>
        <mxCell id="aM9ryv3xv72pqoxQDRHE-2" value="" style="html=1;points=[];perimeter=orthogonalPerimeter;outlineConnect=0;targetShapes=umlLifeline;portConstraint=eastwest;newEdgeStyle={&quot;edgeStyle&quot;:&quot;elbowEdgeStyle&quot;,&quot;elbow&quot;:&quot;vertical&quot;,&quot;curved&quot;:0,&quot;rounded&quot;:0};" parent="aM9ryv3xv72pqoxQDRHE-1" vertex="1">
          <mxGeometry x="45" y="70" width="10" height="190" as="geometry" />
        </mxCell>
        <mxCell id="aM9ryv3xv72pqoxQDRHE-3" value="dispatch" style="html=1;verticalAlign=bottom;startArrow=oval;endArrow=block;startSize=8;edgeStyle=elbowEdgeStyle;elbow=vertical;curved=0;rounded=0;" parent="aM9ryv3xv72pqoxQDRHE-1" target="aM9ryv3xv72pqoxQDRHE-2" edge="1">
          <mxGeometry relative="1" as="geometry">
            <mxPoint x="-15" y="70" as="sourcePoint" />
          </mxGeometry>
        </mxCell>
        <mxCell id="aM9ryv3xv72pqoxQDRHE-4" value="" style="html=1;points=[];perimeter=orthogonalPerimeter;outlineConnect=0;targetShapes=umlLifeline;portConstraint=eastwest;newEdgeStyle={&quot;edgeStyle&quot;:&quot;elbowEdgeStyle&quot;,&quot;elbow&quot;:&quot;vertical&quot;,&quot;curved&quot;:0,&quot;rounded&quot;:0};" parent="aM9ryv3xv72pqoxQDRHE-1" vertex="1">
          <mxGeometry x="50" y="120" width="10" height="80" as="geometry" />
        </mxCell>
        <mxCell id="aM9ryv3xv72pqoxQDRHE-5" value="Service Layer" style="shape=umlLifeline;perimeter=lifelinePerimeter;whiteSpace=wrap;html=1;container=0;dropTarget=0;collapsible=0;recursiveResize=0;outlineConnect=0;portConstraint=eastwest;newEdgeStyle={&quot;edgeStyle&quot;:&quot;elbowEdgeStyle&quot;,&quot;elbow&quot;:&quot;vertical&quot;,&quot;curved&quot;:0,&quot;rounded&quot;:0};" parent="1" vertex="1">
          <mxGeometry x="220" y="40" width="100" height="300" as="geometry" />
        </mxCell>
        <mxCell id="aM9ryv3xv72pqoxQDRHE-6" value="" style="html=1;points=[];perimeter=orthogonalPerimeter;outlineConnect=0;targetShapes=umlLifeline;portConstraint=eastwest;newEdgeStyle={&quot;edgeStyle&quot;:&quot;elbowEdgeStyle&quot;,&quot;elbow&quot;:&quot;vertical&quot;,&quot;curved&quot;:0,&quot;rounded&quot;:0};" parent="aM9ryv3xv72pqoxQDRHE-5" vertex="1">
          <mxGeometry x="45" y="80" width="10" height="170" as="geometry" />
        </mxCell>
        <mxCell id="aM9ryv3xv72pqoxQDRHE-7" value="dispatch" style="html=1;verticalAlign=bottom;endArrow=block;edgeStyle=elbowEdgeStyle;elbow=vertical;curved=0;rounded=0;" parent="1" source="aM9ryv3xv72pqoxQDRHE-2" target="aM9ryv3xv72pqoxQDRHE-6" edge="1">
          <mxGeometry relative="1" as="geometry">
            <mxPoint x="195" y="130" as="sourcePoint" />
            <Array as="points">
              <mxPoint x="180" y="120" />
            </Array>
          </mxGeometry>
        </mxCell>
        <mxCell id="aM9ryv3xv72pqoxQDRHE-8" value="return" style="html=1;verticalAlign=bottom;endArrow=open;dashed=1;endSize=8;edgeStyle=elbowEdgeStyle;elbow=vertical;curved=0;rounded=0;" parent="1" source="aM9ryv3xv72pqoxQDRHE-6" target="aM9ryv3xv72pqoxQDRHE-2" edge="1">
          <mxGeometry relative="1" as="geometry">
            <mxPoint x="195" y="205" as="targetPoint" />
            <Array as="points">
              <mxPoint x="190" y="280" />
            </Array>
          </mxGeometry>
        </mxCell>
        <mxCell id="aM9ryv3xv72pqoxQDRHE-9" value="callback" style="html=1;verticalAlign=bottom;endArrow=block;edgeStyle=elbowEdgeStyle;elbow=vertical;curved=0;rounded=0;" parent="1" source="aM9ryv3xv72pqoxQDRHE-6" target="aM9ryv3xv72pqoxQDRHE-4" edge="1">
          <mxGeometry relative="1" as="geometry">
            <mxPoint x="175" y="160" as="sourcePoint" />
            <Array as="points">
              <mxPoint x="190" y="160" />
            </Array>
          </mxGeometry>
        </mxCell>
        <mxCell id="aM9ryv3xv72pqoxQDRHE-10" value="return" style="html=1;verticalAlign=bottom;endArrow=open;dashed=1;endSize=8;edgeStyle=elbowEdgeStyle;elbow=vertical;curved=0;rounded=0;" parent="1" source="aM9ryv3xv72pqoxQDRHE-4" target="aM9ryv3xv72pqoxQDRHE-6" edge="1">
          <mxGeometry relative="1" as="geometry">
            <mxPoint x="175" y="235" as="targetPoint" />
            <Array as="points">
              <mxPoint x="180" y="230" />
            </Array>
          </mxGeometry>
        </mxCell>
      </root>
    </mxGraphModel>
  </diagram>
  <diagram id="gAJmTUb0zvMLt5ep9AGn" name="Page-2">
    <mxGraphModel dx="1804" dy="626" grid="1" gridSize="10" guides="1" tooltips="1" connect="1" arrows="1" fold="1" page="1" pageScale="1" pageWidth="850" pageHeight="1100" math="0" shadow="0">
      <root>
        <mxCell id="0" />
        <mxCell id="1" parent="0" />
        <mxCell id="jKOo5eAIJNoVlqBJy6k2-3" value="Controller" style="whiteSpace=wrap;html=1;aspect=fixed;" vertex="1" parent="1">
          <mxGeometry x="630" y="140" width="80" height="80" as="geometry" />
        </mxCell>
        <mxCell id="jKOo5eAIJNoVlqBJy6k2-4" value="Model" style="whiteSpace=wrap;html=1;aspect=fixed;" vertex="1" parent="1">
          <mxGeometry x="950" y="140" width="80" height="80" as="geometry" />
        </mxCell>
        <mxCell id="jKOo5eAIJNoVlqBJy6k2-5" value="Service Layer" style="whiteSpace=wrap;html=1;aspect=fixed;" vertex="1" parent="1">
          <mxGeometry x="790" y="140" width="80" height="80" as="geometry" />
        </mxCell>
        <mxCell id="jKOo5eAIJNoVlqBJy6k2-6" value="Client" style="whiteSpace=wrap;html=1;aspect=fixed;" vertex="1" parent="1">
          <mxGeometry x="470" y="140" width="80" height="80" as="geometry" />
        </mxCell>
        <mxCell id="jKOo5eAIJNoVlqBJy6k2-7" value="Database" style="shape=cylinder3;whiteSpace=wrap;html=1;boundedLbl=1;backgroundOutline=1;size=15;" vertex="1" parent="1">
          <mxGeometry x="855" y="280" width="100" height="70" as="geometry" />
        </mxCell>
        <mxCell id="jKOo5eAIJNoVlqBJy6k2-8" value="Actor" style="shape=umlActor;verticalLabelPosition=bottom;verticalAlign=top;html=1;outlineConnect=0;" vertex="1" parent="1">
          <mxGeometry x="500" y="190" width="20" height="30" as="geometry" />
        </mxCell>
        <mxCell id="jKOo5eAIJNoVlqBJy6k2-14" value="" style="endArrow=classic;startArrow=classic;html=1;rounded=0;exitX=1;exitY=0.5;exitDx=0;exitDy=0;entryX=0;entryY=0.5;entryDx=0;entryDy=0;" edge="1" parent="1" source="jKOo5eAIJNoVlqBJy6k2-6" target="jKOo5eAIJNoVlqBJy6k2-3">
          <mxGeometry width="50" height="50" relative="1" as="geometry">
            <mxPoint x="725" y="250" as="sourcePoint" />
            <mxPoint x="775" y="200" as="targetPoint" />
          </mxGeometry>
        </mxCell>
        <mxCell id="jKOo5eAIJNoVlqBJy6k2-15" value="" style="endArrow=classic;startArrow=classic;html=1;rounded=0;exitX=1;exitY=0.5;exitDx=0;exitDy=0;entryX=0;entryY=0.5;entryDx=0;entryDy=0;" edge="1" parent="1" source="jKOo5eAIJNoVlqBJy6k2-3" target="jKOo5eAIJNoVlqBJy6k2-5">
          <mxGeometry width="50" height="50" relative="1" as="geometry">
            <mxPoint x="560" y="190" as="sourcePoint" />
            <mxPoint x="640" y="190" as="targetPoint" />
          </mxGeometry>
        </mxCell>
        <mxCell id="jKOo5eAIJNoVlqBJy6k2-16" value="" style="endArrow=classic;startArrow=classic;html=1;rounded=0;exitX=1;exitY=0.5;exitDx=0;exitDy=0;entryX=0;entryY=0.5;entryDx=0;entryDy=0;" edge="1" parent="1" source="jKOo5eAIJNoVlqBJy6k2-5" target="jKOo5eAIJNoVlqBJy6k2-4">
          <mxGeometry width="50" height="50" relative="1" as="geometry">
            <mxPoint x="720" y="190" as="sourcePoint" />
            <mxPoint x="800" y="190" as="targetPoint" />
          </mxGeometry>
        </mxCell>
        <mxCell id="jKOo5eAIJNoVlqBJy6k2-17" value="" style="endArrow=classic;startArrow=classic;html=1;rounded=0;entryX=0;entryY=0.5;entryDx=0;entryDy=0;entryPerimeter=0;exitX=0.5;exitY=1;exitDx=0;exitDy=0;" edge="1" parent="1" source="jKOo5eAIJNoVlqBJy6k2-5" target="jKOo5eAIJNoVlqBJy6k2-7">
          <mxGeometry width="50" height="50" relative="1" as="geometry">
            <mxPoint x="725" y="250" as="sourcePoint" />
            <mxPoint x="775" y="200" as="targetPoint" />
            <Array as="points">
              <mxPoint x="830" y="315" />
            </Array>
          </mxGeometry>
        </mxCell>
        <mxCell id="jKOo5eAIJNoVlqBJy6k2-18" value="" style="endArrow=classic;startArrow=classic;html=1;rounded=0;entryX=1;entryY=0.5;entryDx=0;entryDy=0;entryPerimeter=0;exitX=0.5;exitY=1;exitDx=0;exitDy=0;" edge="1" parent="1" source="jKOo5eAIJNoVlqBJy6k2-4" target="jKOo5eAIJNoVlqBJy6k2-7">
          <mxGeometry width="50" height="50" relative="1" as="geometry">
            <mxPoint x="840" y="230" as="sourcePoint" />
            <mxPoint x="875" y="325" as="targetPoint" />
            <Array as="points">
              <mxPoint x="990" y="315" />
            </Array>
          </mxGeometry>
        </mxCell>
        <mxCell id="jKOo5eAIJNoVlqBJy6k2-20" value="Repository&lt;br&gt;(JdbcTemplate)" style="rounded=1;whiteSpace=wrap;html=1;" vertex="1" parent="1">
          <mxGeometry x="762.5" y="60" width="135" height="40" as="geometry" />
        </mxCell>
        <mxCell id="jKOo5eAIJNoVlqBJy6k2-24" value="" style="endArrow=classic;startArrow=classic;html=1;rounded=0;entryX=0.5;entryY=1;entryDx=0;entryDy=0;" edge="1" parent="1" source="jKOo5eAIJNoVlqBJy6k2-5" target="jKOo5eAIJNoVlqBJy6k2-20">
          <mxGeometry width="50" height="50" relative="1" as="geometry">
            <mxPoint x="725" y="250" as="sourcePoint" />
            <mxPoint x="775" y="200" as="targetPoint" />
          </mxGeometry>
        </mxCell>
        <mxCell id="jKOo5eAIJNoVlqBJy6k2-27" value="Spring boot Rest API Application" style="swimlane;whiteSpace=wrap;html=1;" vertex="1" parent="1">
          <mxGeometry x="290" y="450" width="1030" height="580" as="geometry" />
        </mxCell>
        <mxCell id="jKOo5eAIJNoVlqBJy6k2-81" style="edgeStyle=orthogonalEdgeStyle;rounded=0;orthogonalLoop=1;jettySize=auto;html=1;exitX=1;exitY=0.5;exitDx=0;exitDy=0;entryX=0;entryY=0.25;entryDx=0;entryDy=0;" edge="1" parent="jKOo5eAIJNoVlqBJy6k2-27" source="jKOo5eAIJNoVlqBJy6k2-40" target="jKOo5eAIJNoVlqBJy6k2-80">
          <mxGeometry relative="1" as="geometry" />
        </mxCell>
        <mxCell id="jKOo5eAIJNoVlqBJy6k2-82" value="if request doesn&#39;t have &lt;br&gt;the authentication header" style="edgeLabel;html=1;align=center;verticalAlign=middle;resizable=0;points=[];" vertex="1" connectable="0" parent="jKOo5eAIJNoVlqBJy6k2-81">
          <mxGeometry x="-0.4" y="3" relative="1" as="geometry">
            <mxPoint x="39" y="-2" as="offset" />
          </mxGeometry>
        </mxCell>
        <mxCell id="jKOo5eAIJNoVlqBJy6k2-40" value="Spring" style="rounded=1;whiteSpace=wrap;html=1;arcSize=10;fillColor=#579915;fontColor=#ffffff;strokeColor=#2D7600;" vertex="1" parent="jKOo5eAIJNoVlqBJy6k2-27">
          <mxGeometry x="30" y="50" width="120" height="470" as="geometry" />
        </mxCell>
        <mxCell id="jKOo5eAIJNoVlqBJy6k2-77" style="edgeStyle=orthogonalEdgeStyle;rounded=0;orthogonalLoop=1;jettySize=auto;html=1;exitX=1;exitY=0.25;exitDx=0;exitDy=0;entryX=0;entryY=0.25;entryDx=0;entryDy=0;" edge="1" parent="jKOo5eAIJNoVlqBJy6k2-27" source="jKOo5eAIJNoVlqBJy6k2-42" target="jKOo5eAIJNoVlqBJy6k2-76">
          <mxGeometry relative="1" as="geometry" />
        </mxCell>
        <mxCell id="jKOo5eAIJNoVlqBJy6k2-79" style="edgeStyle=orthogonalEdgeStyle;rounded=0;orthogonalLoop=1;jettySize=auto;html=1;exitX=0.75;exitY=1;exitDx=0;exitDy=0;entryX=1;entryY=0.5;entryDx=0;entryDy=0;" edge="1" parent="jKOo5eAIJNoVlqBJy6k2-27" source="jKOo5eAIJNoVlqBJy6k2-42" target="jKOo5eAIJNoVlqBJy6k2-51">
          <mxGeometry relative="1" as="geometry" />
        </mxCell>
        <mxCell id="jKOo5eAIJNoVlqBJy6k2-86" value="Authentication success but User &lt;br&gt;doesn&#39;t have proper Role" style="edgeLabel;html=1;align=center;verticalAlign=middle;resizable=0;points=[];" vertex="1" connectable="0" parent="jKOo5eAIJNoVlqBJy6k2-79">
          <mxGeometry x="0.6933" y="-1" relative="1" as="geometry">
            <mxPoint as="offset" />
          </mxGeometry>
        </mxCell>
        <mxCell id="jKOo5eAIJNoVlqBJy6k2-42" value="Authentication Manager" style="rounded=0;whiteSpace=wrap;html=1;fillColor=#fff2cc;strokeColor=#d6b656;" vertex="1" parent="jKOo5eAIJNoVlqBJy6k2-27">
          <mxGeometry x="330" y="50" width="120" height="60" as="geometry" />
        </mxCell>
        <mxCell id="jKOo5eAIJNoVlqBJy6k2-49" value="" style="endArrow=classic;html=1;rounded=0;entryX=0;entryY=0.5;entryDx=0;entryDy=0;exitX=1;exitY=0.062;exitDx=0;exitDy=0;exitPerimeter=0;" edge="1" parent="jKOo5eAIJNoVlqBJy6k2-27" source="jKOo5eAIJNoVlqBJy6k2-40" target="jKOo5eAIJNoVlqBJy6k2-42">
          <mxGeometry width="50" height="50" relative="1" as="geometry">
            <mxPoint x="20" y="320" as="sourcePoint" />
            <mxPoint x="70" y="270" as="targetPoint" />
          </mxGeometry>
        </mxCell>
        <mxCell id="jKOo5eAIJNoVlqBJy6k2-50" value="If Request is authenticated&amp;nbsp;&lt;br&gt;and user has ROLE_ADMIN" style="edgeLabel;html=1;align=center;verticalAlign=middle;resizable=0;points=[];" vertex="1" connectable="0" parent="jKOo5eAIJNoVlqBJy6k2-49">
          <mxGeometry x="-0.4714" y="1" relative="1" as="geometry">
            <mxPoint x="42" y="1" as="offset" />
          </mxGeometry>
        </mxCell>
        <mxCell id="jKOo5eAIJNoVlqBJy6k2-25" value="Client API" style="swimlane;whiteSpace=wrap;html=1;" vertex="1" parent="jKOo5eAIJNoVlqBJy6k2-27">
          <mxGeometry x="530" y="145" width="330" height="235" as="geometry" />
        </mxCell>
        <mxCell id="jKOo5eAIJNoVlqBJy6k2-51" value="Authentication AccessDenied Handler" style="rounded=0;whiteSpace=wrap;html=1;fillColor=#f8cecc;strokeColor=#b85450;" vertex="1" parent="jKOo5eAIJNoVlqBJy6k2-27">
          <mxGeometry x="330" y="460" width="120" height="60" as="geometry" />
        </mxCell>
        <mxCell id="jKOo5eAIJNoVlqBJy6k2-53" value="" style="endArrow=classic;html=1;rounded=0;exitX=1.026;exitY=0.893;exitDx=0;exitDy=0;exitPerimeter=0;entryX=-0.017;entryY=0.16;entryDx=0;entryDy=0;entryPerimeter=0;" edge="1" parent="jKOo5eAIJNoVlqBJy6k2-27" source="jKOo5eAIJNoVlqBJy6k2-40" target="jKOo5eAIJNoVlqBJy6k2-51">
          <mxGeometry width="50" height="50" relative="1" as="geometry">
            <mxPoint x="330" y="340" as="sourcePoint" />
            <mxPoint x="380" y="290" as="targetPoint" />
          </mxGeometry>
        </mxCell>
        <mxCell id="jKOo5eAIJNoVlqBJy6k2-63" value="if request is not Authenticated &lt;br&gt;and Unauthorized" style="edgeLabel;html=1;align=center;verticalAlign=middle;resizable=0;points=[];" vertex="1" connectable="0" parent="jKOo5eAIJNoVlqBJy6k2-53">
          <mxGeometry x="-0.3068" y="3" relative="1" as="geometry">
            <mxPoint x="26" y="2" as="offset" />
          </mxGeometry>
        </mxCell>
        <mxCell id="jKOo5eAIJNoVlqBJy6k2-64" value="" style="endArrow=classic;html=1;rounded=0;entryX=0.992;entryY=0.977;entryDx=0;entryDy=0;entryPerimeter=0;exitX=-0.011;exitY=0.819;exitDx=0;exitDy=0;exitPerimeter=0;" edge="1" parent="jKOo5eAIJNoVlqBJy6k2-27" source="jKOo5eAIJNoVlqBJy6k2-51" target="jKOo5eAIJNoVlqBJy6k2-40">
          <mxGeometry width="50" height="50" relative="1" as="geometry">
            <mxPoint x="320" y="509" as="sourcePoint" />
            <mxPoint x="400" y="280" as="targetPoint" />
          </mxGeometry>
        </mxCell>
        <mxCell id="jKOo5eAIJNoVlqBJy6k2-65" value="401 Unauthorized" style="edgeLabel;html=1;align=center;verticalAlign=middle;resizable=0;points=[];" vertex="1" connectable="0" parent="jKOo5eAIJNoVlqBJy6k2-64">
          <mxGeometry x="0.2634" relative="1" as="geometry">
            <mxPoint x="30" as="offset" />
          </mxGeometry>
        </mxCell>
        <mxCell id="jKOo5eAIJNoVlqBJy6k2-75" style="edgeStyle=orthogonalEdgeStyle;rounded=0;orthogonalLoop=1;jettySize=auto;html=1;entryX=0;entryY=0.25;entryDx=0;entryDy=0;" edge="1" parent="jKOo5eAIJNoVlqBJy6k2-27" source="jKOo5eAIJNoVlqBJy6k2-71" target="jKOo5eAIJNoVlqBJy6k2-25">
          <mxGeometry relative="1" as="geometry">
            <mxPoint x="520" y="210" as="targetPoint" />
          </mxGeometry>
        </mxCell>
        <mxCell id="jKOo5eAIJNoVlqBJy6k2-71" value="Authentication Success Handler" style="rounded=1;whiteSpace=wrap;html=1;arcSize=0;fillColor=#d5e8d4;strokeColor=#82b366;" vertex="1" parent="jKOo5eAIJNoVlqBJy6k2-27">
          <mxGeometry x="270" y="180" width="120" height="60" as="geometry" />
        </mxCell>
        <mxCell id="jKOo5eAIJNoVlqBJy6k2-70" style="edgeStyle=orthogonalEdgeStyle;rounded=0;orthogonalLoop=1;jettySize=auto;html=1;exitX=0.5;exitY=1;exitDx=0;exitDy=0;entryX=0.5;entryY=0;entryDx=0;entryDy=0;" edge="1" parent="jKOo5eAIJNoVlqBJy6k2-27" source="jKOo5eAIJNoVlqBJy6k2-42" target="jKOo5eAIJNoVlqBJy6k2-71">
          <mxGeometry relative="1" as="geometry">
            <mxPoint x="355" y="150" as="targetPoint" />
          </mxGeometry>
        </mxCell>
        <mxCell id="jKOo5eAIJNoVlqBJy6k2-78" style="edgeStyle=orthogonalEdgeStyle;rounded=0;orthogonalLoop=1;jettySize=auto;html=1;exitX=0;exitY=0.75;exitDx=0;exitDy=0;entryX=1;entryY=0.75;entryDx=0;entryDy=0;" edge="1" parent="jKOo5eAIJNoVlqBJy6k2-27" source="jKOo5eAIJNoVlqBJy6k2-76" target="jKOo5eAIJNoVlqBJy6k2-42">
          <mxGeometry relative="1" as="geometry" />
        </mxCell>
        <mxCell id="jKOo5eAIJNoVlqBJy6k2-76" value="CustomUser Details Service" style="rounded=0;whiteSpace=wrap;html=1;fillColor=#f5f5f5;fontColor=#333333;strokeColor=#666666;" vertex="1" parent="jKOo5eAIJNoVlqBJy6k2-27">
          <mxGeometry x="520" y="50" width="120" height="60" as="geometry" />
        </mxCell>
        <mxCell id="jKOo5eAIJNoVlqBJy6k2-84" style="edgeStyle=orthogonalEdgeStyle;rounded=0;orthogonalLoop=1;jettySize=auto;html=1;exitX=0;exitY=0.75;exitDx=0;exitDy=0;entryX=0.992;entryY=0.674;entryDx=0;entryDy=0;entryPerimeter=0;" edge="1" parent="jKOo5eAIJNoVlqBJy6k2-27" source="jKOo5eAIJNoVlqBJy6k2-80" target="jKOo5eAIJNoVlqBJy6k2-40">
          <mxGeometry relative="1" as="geometry" />
        </mxCell>
        <mxCell id="jKOo5eAIJNoVlqBJy6k2-85" value="401 Unauthorized" style="edgeLabel;html=1;align=center;verticalAlign=middle;resizable=0;points=[];" vertex="1" connectable="0" parent="jKOo5eAIJNoVlqBJy6k2-84">
          <mxGeometry x="0.2186" y="-1" relative="1" as="geometry">
            <mxPoint x="13" as="offset" />
          </mxGeometry>
        </mxCell>
        <mxCell id="jKOo5eAIJNoVlqBJy6k2-80" value="EntryPoint" style="rounded=0;whiteSpace=wrap;html=1;dashed=1;fillColor=#f8cecc;strokeColor=#b85450;" vertex="1" parent="jKOo5eAIJNoVlqBJy6k2-27">
          <mxGeometry x="270" y="320" width="120" height="60" as="geometry" />
        </mxCell>
        <mxCell id="jKOo5eAIJNoVlqBJy6k2-30" value="Client / Consumer" style="swimlane;whiteSpace=wrap;html=1;" vertex="1" parent="1">
          <mxGeometry x="-120" y="640" width="195" height="200" as="geometry" />
        </mxCell>
        <mxCell id="jKOo5eAIJNoVlqBJy6k2-31" value="&lt;div style=&quot;text-align: left;&quot;&gt;&lt;span style=&quot;background-color: initial;&quot;&gt;&lt;b&gt;Request Body: [POST]&lt;/b&gt;&lt;/span&gt;&lt;/div&gt;&lt;div style=&quot;border-color: var(--border-color); text-align: left;&quot;&gt;JSON:&lt;/div&gt;&lt;div style=&quot;border-color: var(--border-color); text-align: left;&quot;&gt;{&lt;/div&gt;&lt;div style=&quot;border-color: var(--border-color); text-align: left;&quot;&gt;&amp;nbsp; &quot;startDate&quot;: &quot;20220601&quot;,&lt;/div&gt;&lt;div style=&quot;border-color: var(--border-color); text-align: left;&quot;&gt;&amp;nbsp; &quot;endDate&quot;: &quot;20220630&quot;,&lt;/div&gt;&lt;div style=&quot;border-color: var(--border-color); text-align: left;&quot;&gt;&amp;nbsp; &quot;rtlrId&quot;: &quot;QUIKTRIPDSD&lt;span style=&quot;background-color: initial;&quot;&gt;&quot;,&lt;/span&gt;&lt;br&gt;&lt;/div&gt;&lt;div style=&quot;border-color: var(--border-color); text-align: left;&quot;&gt;&amp;nbsp; &quot;wslrId&quot;: &quot;64225&lt;span style=&quot;background-color: initial;&quot;&gt;&quot;&lt;/span&gt;&lt;br&gt;&lt;/div&gt;&lt;div style=&quot;border-color: var(--border-color); text-align: left;&quot;&gt;}&lt;/div&gt;" style="rounded=1;whiteSpace=wrap;html=1;" vertex="1" parent="jKOo5eAIJNoVlqBJy6k2-30">
          <mxGeometry x="12.5" y="40" width="170" height="150" as="geometry" />
        </mxCell>
        <mxCell id="jKOo5eAIJNoVlqBJy6k2-39" value="Spring boot Architecture" style="text;html=1;strokeColor=none;fillColor=none;align=center;verticalAlign=middle;whiteSpace=wrap;rounded=0;fontStyle=1" vertex="1" parent="1">
          <mxGeometry x="680" y="20" width="310" height="30" as="geometry" />
        </mxCell>
        <mxCell id="jKOo5eAIJNoVlqBJy6k2-66" value="" style="endArrow=classic;html=1;rounded=0;entryX=0;entryY=0.5;entryDx=0;entryDy=0;exitX=1;exitY=0.5;exitDx=0;exitDy=0;" edge="1" parent="1" source="jKOo5eAIJNoVlqBJy6k2-30" target="jKOo5eAIJNoVlqBJy6k2-27">
          <mxGeometry width="50" height="50" relative="1" as="geometry">
            <mxPoint x="440" y="770" as="sourcePoint" />
            <mxPoint x="490" y="720" as="targetPoint" />
          </mxGeometry>
        </mxCell>
        <mxCell id="jKOo5eAIJNoVlqBJy6k2-67" value="&amp;nbsp;Request with credentials" style="edgeLabel;html=1;align=center;verticalAlign=middle;resizable=0;points=[];" vertex="1" connectable="0" parent="jKOo5eAIJNoVlqBJy6k2-66">
          <mxGeometry x="-0.3283" y="-2" relative="1" as="geometry">
            <mxPoint x="23" y="-2" as="offset" />
          </mxGeometry>
        </mxCell>
      </root>
    </mxGraphModel>
  </diagram>
</mxfile>
